<?xml version="1.0" encoding="utf-8"?>
<svg version="1.1" xmlns="http://www.w3.org/2000/svg" xmlns:xlink="http://www.w3.org/1999/xlink" width="1000" height="1000" viewBox="0 0 1000 1000" enable-background="new 0 0 1000 1000" xml:space="preserve"><g transform="translate(0,0) scale(1.0,1.0)"><svg width="1000" height="1000" viewBox="0 0 740 740" enable-background="new 0 0 1000 1000" xml:space="preserve"><rect x="0" y="0" width="740" height="740" fill="rgb(0,0,0)" opacity="0.0" /><rect x="260" y="80" rx="6.6666665" ry="6.6666665" width="20" height="20" fill="rgb(255,255,255)" opacity="1.0" /><rect x="320" y="80" rx="6.6666665" ry="6.6666665" width="20" height="20" fill="rgb(255,255,255)" opacity="1.0" /><rect x="340" y="80" rx="6.6666665" ry="6.6666665" width="20" height="20" fill="rgb(255,255,255)" opacity="1.0" /><rect x="360" y="80" rx="6.6666665" ry="6.6666665" width="20" height="20" fill="rgb(255,255,255)" opacity="1.0" /><rect x="380" y="80" rx="6.6666665" ry="6.6666665" width="20" height="20" fill="rgb(255,255,255)" opacity="1.0" /><rect x="460" y="80" rx="6.6666665" ry="6.6666665" width="20" height="20" fill="rgb(255,255,255)" opacity="1.0" /><rect x="300" y="100" rx="6.6666665" ry="6.6666665" width="20" height="20" fill="rgb(255,255,255)" opacity="1.0" /><rect x="320" y="100" rx="6.6666665" ry="6.6666665" width="20" height="20" fill="rgb(255,255,255)" opacity="1.0" /><rect x="340" y="100" rx="6.6666665" ry="6.6666665" width="20" height="20" fill="rgb(255,255,255)" opacity="1.0" /><rect x="360" y="100" rx="6.6666665" ry="6.6666665" width="20" height="20" fill="rgb(255,255,255)" opacity="1.0" /><rect x="380" y="100" rx="6.6666665" ry="6.6666665" width="20" height="20" fill="rgb(255,255,255)" opacity="1.0" /><rect x="400" y="100" rx="6.6666665" ry="6.6666665" width="20" height="20" fill="rgb(255,255,255)" opacity="1.0" /><rect x="420" y="100" rx="6.6666665" ry="6.6666665" width="20" height="20" fill="rgb(255,255,255)" opacity="1.0" /><rect x="440" y="100" rx="6.6666665" ry="6.6666665" width="20" height="20" fill="rgb(255,255,255)" opacity="1.0" /><rect x="480" y="100" rx="6.6666665" ry="6.6666665" width="20" height="20" fill="rgb(255,255,255)" opacity="1.0" /><rect x="240" y="120" rx="6.6666665" ry="6.6666665" width="20" height="20" fill="rgb(255,255,255)" opacity="1.0" /><rect x="300" y="120" rx="6.6666665" ry="6.6666665" width="20" height="20" fill="rgb(255,255,255)" opacity="1.0" /><rect x="320" y="120" rx="6.6666665" ry="6.6666665" width="20" height="20" fill="rgb(255,255,255)" opacity="1.0" /><rect x="340" y="120" rx="6.6666665" ry="6.6666665" width="20" height="20" fill="rgb(255,255,255)" opacity="1.0" /><rect x="380" y="120" rx="6.6666665" ry="6.6666665" width="20" height="20" fill="rgb(255,255,255)" opacity="1.0" /><rect x="420" y="120" rx="6.6666665" ry="6.6666665" width="20" height="20" fill="rgb(255,255,255)" opacity="1.0" /><rect x="440" y="120" rx="6.6666665" ry="6.6666665" width="20" height="20" fill="rgb(255,255,255)" opacity="1.0" /><rect x="460" y="120" rx="6.6666665" ry="6.6666665" width="20" height="20" fill="rgb(255,255,255)" opacity="1.0" /><rect x="480" y="120" rx="6.6666665" ry="6.6666665" width="20" height="20" fill="rgb(255,255,255)" opacity="1.0" /><rect x="240" y="140" rx="6.6666665" ry="6.6666665" width="20" height="20" fill="rgb(255,255,255)" opacity="1.0" /><rect x="260" y="140" rx="6.6666665" ry="6.6666665" width="20" height="20" fill="rgb(255,255,255)" opacity="1.0" /><rect x="280" y="140" rx="6.6666665" ry="6.6666665" width="20" height="20" fill="rgb(255,255,255)" opacity="1.0" /><rect x="300" y="140" rx="6.6666665" ry="6.6666665" width="20" height="20" fill="rgb(255,255,255)" opacity="1.0" /><rect x="360" y="140" rx="6.6666665" ry="6.6666665" width="20" height="20" fill="rgb(255,255,255)" opacity="1.0" /><rect x="380" y="140" rx="6.6666665" ry="6.6666665" width="20" height="20" fill="rgb(255,255,255)" opacity="1.0" /><rect x="420" y="140" rx="6.6666665" ry="6.6666665" width="20" height="20" fill="rgb(255,255,255)" opacity="1.0" /><rect x="240" y="160" rx="6.6666665" ry="6.6666665" width="20" height="20" fill="rgb(255,255,255)" opacity="1.0" /><rect x="260" y="160" rx="6.6666665" ry="6.6666665" width="20" height="20" fill="rgb(255,255,255)" opacity="1.0" /><rect x="280" y="160" rx="6.6666665" ry="6.6666665" width="20" height="20" fill="rgb(255,255,255)" opacity="1.0" /><rect x="300" y="160" rx="6.6666665" ry="6.6666665" width="20" height="20" fill="rgb(255,255,255)" opacity="1.0" /><rect x="320" y="160" rx="6.6666665" ry="6.6666665" width="20" height="20" fill="rgb(255,255,255)" opacity="1.0" /><rect x="380" y="160" rx="6.6666665" ry="6.6666665" width="20" height="20" fill="rgb(255,255,255)" opacity="1.0" /><rect x="400" y="160" rx="6.6666665" ry="6.6666665" width="20" height="20" fill="rgb(255,255,255)" opacity="1.0" /><rect x="440" y="160" rx="6.6666665" ry="6.6666665" width="20" height="20" fill="rgb(255,255,255)" opacity="1.0" /><rect x="460" y="160" rx="6.6666665" ry="6.6666665" width="20" height="20" fill="rgb(255,255,255)" opacity="1.0" /><rect x="240" y="180" rx="6.6666665" ry="6.6666665" width="20" height="20" fill="rgb(255,255,255)" opacity="1.0" /><rect x="260" y="180" rx="6.6666665" ry="6.6666665" width="20" height="20" fill="rgb(255,255,255)" opacity="1.0" /><rect x="300" y="180" rx="6.6666665" ry="6.6666665" width="20" height="20" fill="rgb(255,255,255)" opacity="1.0" /><rect x="320" y="180" rx="6.6666665" ry="6.6666665" width="20" height="20" fill="rgb(255,255,255)" opacity="1.0" /><rect x="420" y="180" rx="6.6666665" ry="6.6666665" width="20" height="20" fill="rgb(255,255,255)" opacity="1.0" /><rect x="480" y="180" rx="6.6666665" ry="6.6666665" width="20" height="20" fill="rgb(255,255,255)" opacity="1.0" /><rect x="240" y="200" rx="6.6666665" ry="6.6666665" width="20" height="20" fill="rgb(255,255,255)" opacity="1.0" /><rect x="280" y="200" rx="6.6666665" ry="6.6666665" width="20" height="20" fill="rgb(255,255,255)" opacity="1.0" /><rect x="320" y="200" rx="6.6666665" ry="6.6666665" width="20" height="20" fill="rgb(255,255,255)" opacity="1.0" /><rect x="360" y="200" rx="6.6666665" ry="6.6666665" width="20" height="20" fill="rgb(255,255,255)" opacity="1.0" /><rect x="400" y="200" rx="6.6666665" ry="6.6666665" width="20" height="20" fill="rgb(255,255,255)" opacity="1.0" /><rect x="440" y="200" rx="6.6666665" ry="6.6666665" width="20" height="20" fill="rgb(255,255,255)" opacity="1.0" /><rect x="480" y="200" rx="6.6666665" ry="6.6666665" width="20" height="20" fill="rgb(255,255,255)" opacity="1.0" /><rect x="240" y="220" rx="6.6666665" ry="6.6666665" width="20" height="20" fill="rgb(255,255,255)" opacity="1.0" /><rect x="300" y="220" rx="6.6666665" ry="6.6666665" width="20" height="20" fill="rgb(255,255,255)" opacity="1.0" /><rect x="360" y="220" rx="6.6666665" ry="6.6666665" width="20" height="20" fill="rgb(255,255,255)" opacity="1.0" /><rect x="400" y="220" rx="6.6666665" ry="6.6666665" width="20" height="20" fill="rgb(255,255,255)" opacity="1.0" /><rect x="440" y="220" rx="6.6666665" ry="6.6666665" width="20" height="20" fill="rgb(255,255,255)" opacity="1.0" /><rect x="460" y="220" rx="6.6666665" ry="6.6666665" width="20" height="20" fill="rgb(255,255,255)" opacity="1.0" /><rect x="480" y="220" rx="6.6666665" ry="6.6666665" width="20" height="20" fill="rgb(255,255,255)" opacity="1.0" /><rect x="80" y="240" rx="6.6666665" ry="6.6666665" width="20" height="20" fill="rgb(255,255,255)" opacity="1.0" /><rect x="120" y="240" rx="6.6666665" ry="6.6666665" width="20" height="20" fill="rgb(255,255,255)" opacity="1.0" /><rect x="140" y="240" rx="6.6666665" ry="6.6666665" width="20" height="20" fill="rgb(255,255,255)" opacity="1.0" /><rect x="160" y="240" rx="6.6666665" ry="6.6666665" width="20" height="20" fill="rgb(255,255,255)" opacity="1.0" /><rect x="180" y="240" rx="6.6666665" ry="6.6666665" width="20" height="20" fill="rgb(255,255,255)" opacity="1.0" /><rect x="200" y="240" rx="6.6666665" ry="6.6666665" width="20" height="20" fill="rgb(255,255,255)" opacity="1.0" /><rect x="260" y="240" rx="6.6666665" ry="6.6666665" width="20" height="20" fill="rgb(255,255,255)" opacity="1.0" /><rect x="280" y="240" rx="6.6666665" ry="6.6666665" width="20" height="20" fill="rgb(255,255,255)" opacity="1.0" /><rect x="300" y="240" rx="6.6666665" ry="6.6666665" width="20" height="20" fill="rgb(255,255,255)" opacity="1.0" /><rect x="320" y="240" rx="6.6666665" ry="6.6666665" width="20" height="20" fill="rgb(255,255,255)" opacity="1.0" /><rect x="400" y="240" rx="6.6666665" ry="6.6666665" width="20" height="20" fill="rgb(255,255,255)" opacity="1.0" /><rect x="480" y="240" rx="6.6666665" ry="6.6666665" width="20" height="20" fill="rgb(255,255,255)" opacity="1.0" /><rect x="520" y="240" rx="6.6666665" ry="6.6666665" width="20" height="20" fill="rgb(255,255,255)" opacity="1.0" /><rect x="540" y="240" rx="6.6666665" ry="6.6666665" width="20" height="20" fill="rgb(255,255,255)" opacity="1.0" /><rect x="560" y="240" rx="6.6666665" ry="6.6666665" width="20" height="20" fill="rgb(255,255,255)" opacity="1.0" /><rect x="580" y="240" rx="6.6666665" ry="6.6666665" width="20" height="20" fill="rgb(255,255,255)" opacity="1.0" /><rect x="600" y="240" rx="6.6666665" ry="6.6666665" width="20" height="20" fill="rgb(255,255,255)" opacity="1.0" /><rect x="100" y="260" rx="6.6666665" ry="6.6666665" width="20" height="20" fill="rgb(255,255,255)" opacity="1.0" /><rect x="180" y="260" rx="6.6666665" ry="6.6666665" width="20" height="20" fill="rgb(255,255,255)" opacity="1.0" /><rect x="240" y="260" rx="6.6666665" ry="6.6666665" width="20" height="20" fill="rgb(255,255,255)" opacity="1.0" /><rect x="260" y="260" rx="6.6666665" ry="6.6666665" width="20" height="20" fill="rgb(255,255,255)" opacity="1.0" /><rect x="340" y="260" rx="6.6666665" ry="6.6666665" width="20" height="20" fill="rgb(255,255,255)" opacity="1.0" /><rect x="360" y="260" rx="6.6666665" ry="6.6666665" width="20" height="20" fill="rgb(255,255,255)" opacity="1.0" /><rect x="380" y="260" rx="6.6666665" ry="6.6666665" width="20" height="20" fill="rgb(255,255,255)" opacity="1.0" /><rect x="440" y="260" rx="6.6666665" ry="6.6666665" width="20" height="20" fill="rgb(255,255,255)" opacity="1.0" /><rect x="480" y="260" rx="6.6666665" ry="6.6666665" width="20" height="20" fill="rgb(255,255,255)" opacity="1.0" /><rect x="560" y="260" rx="6.6666665" ry="6.6666665" width="20" height="20" fill="rgb(255,255,255)" opacity="1.0" /><rect x="580" y="260" rx="6.6666665" ry="6.6666665" width="20" height="20" fill="rgb(255,255,255)" opacity="1.0" /><rect x="620" y="260" rx="6.6666665" ry="6.6666665" width="20" height="20" fill="rgb(255,255,255)" opacity="1.0" /><rect x="80" y="280" rx="6.6666665" ry="6.6666665" width="20" height="20" fill="rgb(255,255,255)" opacity="1.0" /><rect x="140" y="280" rx="6.6666665" ry="6.6666665" width="20" height="20" fill="rgb(255,255,255)" opacity="1.0" /><rect x="180" y="280" rx="6.6666665" ry="6.6666665" width="20" height="20" fill="rgb(255,255,255)" opacity="1.0" /><rect x="200" y="280" rx="6.6666665" ry="6.6666665" width="20" height="20" fill="rgb(255,255,255)" opacity="1.0" /><rect x="240" y="280" rx="6.6666665" ry="6.6666665" width="20" height="20" fill="rgb(255,255,255)" opacity="1.0" /><rect x="320" y="280" rx="6.6666665" ry="6.6666665" width="20" height="20" fill="rgb(255,255,255)" opacity="1.0" /><rect x="340" y="280" rx="6.6666665" ry="6.6666665" width="20" height="20" fill="rgb(255,255,255)" opacity="1.0" /><rect x="360" y="280" rx="6.6666665" ry="6.6666665" width="20" height="20" fill="rgb(255,255,255)" opacity="1.0" /><rect x="380" y="280" rx="6.6666665" ry="6.6666665" width="20" height="20" fill="rgb(255,255,255)" opacity="1.0" /><rect x="400" y="280" rx="6.6666665" ry="6.6666665" width="20" height="20" fill="rgb(255,255,255)" opacity="1.0" /><rect x="420" y="280" rx="6.6666665" ry="6.6666665" width="20" height="20" fill="rgb(255,255,255)" opacity="1.0" /><rect x="580" y="280" rx="6.6666665" ry="6.6666665" width="20" height="20" fill="rgb(255,255,255)" opacity="1.0" /><rect x="600" y="280" rx="6.6666665" ry="6.6666665" width="20" height="20" fill="rgb(255,255,255)" opacity="1.0" /><rect x="80" y="300" rx="6.6666665" ry="6.6666665" width="20" height="20" fill="rgb(255,255,255)" opacity="1.0" /><rect x="120" y="300" rx="6.6666665" ry="6.6666665" width="20" height="20" fill="rgb(255,255,255)" opacity="1.0" /><rect x="140" y="300" rx="6.6666665" ry="6.6666665" width="20" height="20" fill="rgb(255,255,255)" opacity="1.0" /><rect x="180" y="300" rx="6.6666665" ry="6.6666665" width="20" height="20" fill="rgb(255,255,255)" opacity="1.0" /><rect x="340" y="300" rx="6.6666665" ry="6.6666665" width="20" height="20" fill="rgb(255,255,255)" opacity="1.0" /><rect x="380" y="300" rx="6.6666665" ry="6.6666665" width="20" height="20" fill="rgb(255,255,255)" opacity="1.0" /><rect x="440" y="300" rx="6.6666665" ry="6.6666665" width="20" height="20" fill="rgb(255,255,255)" opacity="1.0" /><rect x="460" y="300" rx="6.6666665" ry="6.6666665" width="20" height="20" fill="rgb(255,255,255)" opacity="1.0" /><rect x="480" y="300" rx="6.6666665" ry="6.6666665" width="20" height="20" fill="rgb(255,255,255)" opacity="1.0" /><rect x="520" y="300" rx="6.6666665" ry="6.6666665" width="20" height="20" fill="rgb(255,255,255)" opacity="1.0" /><rect x="540" y="300" rx="6.6666665" ry="6.6666665" width="20" height="20" fill="rgb(255,255,255)" opacity="1.0" /><rect x="560" y="300" rx="6.6666665" ry="6.6666665" width="20" height="20" fill="rgb(255,255,255)" opacity="1.0" /><rect x="580" y="300" rx="6.6666665" ry="6.6666665" width="20" height="20" fill="rgb(255,255,255)" opacity="1.0" /><rect x="640" y="300" rx="6.6666665" ry="6.6666665" width="20" height="20" fill="rgb(255,255,255)" opacity="1.0" /><rect x="160" y="320" rx="6.6666665" ry="6.6666665" width="20" height="20" fill="rgb(255,255,255)" opacity="1.0" /><rect x="180" y="320" rx="6.6666665" ry="6.6666665" width="20" height="20" fill="rgb(255,255,255)" opacity="1.0" /><rect x="200" y="320" rx="6.6666665" ry="6.6666665" width="20" height="20" fill="rgb(255,255,255)" opacity="1.0" /><rect x="240" y="320" rx="6.6666665" ry="6.6666665" width="20" height="20" fill="rgb(255,255,255)" opacity="1.0" /><rect x="280" y="320" rx="6.6666665" ry="6.6666665" width="20" height="20" fill="rgb(255,255,255)" opacity="1.0" /><rect x="360" y="320" rx="6.6666665" ry="6.6666665" width="20" height="20" fill="rgb(255,255,255)" opacity="1.0" /><rect x="380" y="320" rx="6.6666665" ry="6.6666665" width="20" height="20" fill="rgb(255,255,255)" opacity="1.0" /><rect x="560" y="320" rx="6.6666665" ry="6.6666665" width="20" height="20" fill="rgb(255,255,255)" opacity="1.0" /><rect x="120" y="340" rx="6.6666665" ry="6.6666665" width="20" height="20" fill="rgb(255,255,255)" opacity="1.0" /><rect x="140" y="340" rx="6.6666665" ry="6.6666665" width="20" height="20" fill="rgb(255,255,255)" opacity="1.0" /><rect x="160" y="340" rx="6.6666665" ry="6.6666665" width="20" height="20" fill="rgb(255,255,255)" opacity="1.0" /><rect x="180" y="340" rx="6.6666665" ry="6.6666665" width="20" height="20" fill="rgb(255,255,255)" opacity="1.0" /><rect x="220" y="340" rx="6.6666665" ry="6.6666665" width="20" height="20" fill="rgb(255,255,255)" opacity="1.0" /><rect x="260" y="340" rx="6.6666665" ry="6.6666665" width="20" height="20" fill="rgb(255,255,255)" opacity="1.0" /><rect x="280" y="340" rx="6.6666665" ry="6.6666665" width="20" height="20" fill="rgb(255,255,255)" opacity="1.0" /><rect x="300" y="340" rx="6.6666665" ry="6.6666665" width="20" height="20" fill="rgb(255,255,255)" opacity="1.0" /><rect x="320" y="340" rx="6.6666665" ry="6.6666665" width="20" height="20" fill="rgb(255,255,255)" opacity="1.0" /><rect x="380" y="340" rx="6.6666665" ry="6.6666665" width="20" height="20" fill="rgb(255,255,255)" opacity="1.0" /><rect x="400" y="340" rx="6.6666665" ry="6.6666665" width="20" height="20" fill="rgb(255,255,255)" opacity="1.0" /><rect x="500" y="340" rx="6.6666665" ry="6.6666665" width="20" height="20" fill="rgb(255,255,255)" opacity="1.0" /><rect x="580" y="340" rx="6.6666665" ry="6.6666665" width="20" height="20" fill="rgb(255,255,255)" opacity="1.0" /><rect x="620" y="340" rx="6.6666665" ry="6.6666665" width="20" height="20" fill="rgb(255,255,255)" opacity="1.0" /><rect x="100" y="360" rx="6.6666665" ry="6.6666665" width="20" height="20" fill="rgb(255,255,255)" opacity="1.0" /><rect x="140" y="360" rx="6.6666665" ry="6.6666665" width="20" height="20" fill="rgb(255,255,255)" opacity="1.0" /><rect x="160" y="360" rx="6.6666665" ry="6.6666665" width="20" height="20" fill="rgb(255,255,255)" opacity="1.0" /><rect x="180" y="360" rx="6.6666665" ry="6.6666665" width="20" height="20" fill="rgb(255,255,255)" opacity="1.0" /><rect x="200" y="360" rx="6.6666665" ry="6.6666665" width="20" height="20" fill="rgb(255,255,255)" opacity="1.0" /><rect x="240" y="360" rx="6.6666665" ry="6.6666665" width="20" height="20" fill="rgb(255,255,255)" opacity="1.0" /><rect x="420" y="360" rx="6.6666665" ry="6.6666665" width="20" height="20" fill="rgb(255,255,255)" opacity="1.0" /><rect x="460" y="360" rx="6.6666665" ry="6.6666665" width="20" height="20" fill="rgb(255,255,255)" opacity="1.0" /><rect x="500" y="360" rx="6.6666665" ry="6.6666665" width="20" height="20" fill="rgb(255,255,255)" opacity="1.0" /><rect x="580" y="360" rx="6.6666665" ry="6.6666665" width="20" height="20" fill="rgb(255,255,255)" opacity="1.0" /><rect x="600" y="360" rx="6.6666665" ry="6.6666665" width="20" height="20" fill="rgb(255,255,255)" opacity="1.0" /><rect x="620" y="360" rx="6.6666665" ry="6.6666665" width="20" height="20" fill="rgb(255,255,255)" opacity="1.0" /><rect x="640" y="360" rx="6.6666665" ry="6.6666665" width="20" height="20" fill="rgb(255,255,255)" opacity="1.0" /><rect x="120" y="380" rx="6.6666665" ry="6.6666665" width="20" height="20" fill="rgb(255,255,255)" opacity="1.0" /><rect x="140" y="380" rx="6.6666665" ry="6.6666665" width="20" height="20" fill="rgb(255,255,255)" opacity="1.0" /><rect x="160" y="380" rx="6.6666665" ry="6.6666665" width="20" height="20" fill="rgb(255,255,255)" opacity="1.0" /><rect x="180" y="380" rx="6.6666665" ry="6.6666665" width="20" height="20" fill="rgb(255,255,255)" opacity="1.0" /><rect x="220" y="380" rx="6.6666665" ry="6.6666665" width="20" height="20" fill="rgb(255,255,255)" opacity="1.0" /><rect x="240" y="380" rx="6.6666665" ry="6.6666665" width="20" height="20" fill="rgb(255,255,255)" opacity="1.0" /><rect x="280" y="380" rx="6.6666665" ry="6.6666665" width="20" height="20" fill="rgb(255,255,255)" opacity="1.0" /><rect x="360" y="380" rx="6.6666665" ry="6.6666665" width="20" height="20" fill="rgb(255,255,255)" opacity="1.0" /><rect x="400" y="380" rx="6.6666665" ry="6.6666665" width="20" height="20" fill="rgb(255,255,255)" opacity="1.0" /><rect x="460" y="380" rx="6.6666665" ry="6.6666665" width="20" height="20" fill="rgb(255,255,255)" opacity="1.0" /><rect x="480" y="380" rx="6.6666665" ry="6.6666665" width="20" height="20" fill="rgb(255,255,255)" opacity="1.0" /><rect x="500" y="380" rx="6.6666665" ry="6.6666665" width="20" height="20" fill="rgb(255,255,255)" opacity="1.0" /><rect x="520" y="380" rx="6.6666665" ry="6.6666665" width="20" height="20" fill="rgb(255,255,255)" opacity="1.0" /><rect x="540" y="380" rx="6.6666665" ry="6.6666665" width="20" height="20" fill="rgb(255,255,255)" opacity="1.0" /><rect x="560" y="380" rx="6.6666665" ry="6.6666665" width="20" height="20" fill="rgb(255,255,255)" opacity="1.0" /><rect x="620" y="380" rx="6.6666665" ry="6.6666665" width="20" height="20" fill="rgb(255,255,255)" opacity="1.0" /><rect x="640" y="380" rx="6.6666665" ry="6.6666665" width="20" height="20" fill="rgb(255,255,255)" opacity="1.0" /><rect x="100" y="400" rx="6.6666665" ry="6.6666665" width="20" height="20" fill="rgb(255,255,255)" opacity="1.0" /><rect x="120" y="400" rx="6.6666665" ry="6.6666665" width="20" height="20" fill="rgb(255,255,255)" opacity="1.0" /><rect x="180" y="400" rx="6.6666665" ry="6.6666665" width="20" height="20" fill="rgb(255,255,255)" opacity="1.0" /><rect x="200" y="400" rx="6.6666665" ry="6.6666665" width="20" height="20" fill="rgb(255,255,255)" opacity="1.0" /><rect x="240" y="400" rx="6.6666665" ry="6.6666665" width="20" height="20" fill="rgb(255,255,255)" opacity="1.0" /><rect x="320" y="400" rx="6.6666665" ry="6.6666665" width="20" height="20" fill="rgb(255,255,255)" opacity="1.0" /><rect x="400" y="400" rx="6.6666665" ry="6.6666665" width="20" height="20" fill="rgb(255,255,255)" opacity="1.0" /><rect x="420" y="400" rx="6.6666665" ry="6.6666665" width="20" height="20" fill="rgb(255,255,255)" opacity="1.0" /><rect x="520" y="400" rx="6.6666665" ry="6.6666665" width="20" height="20" fill="rgb(255,255,255)" opacity="1.0" /><rect x="540" y="400" rx="6.6666665" ry="6.6666665" width="20" height="20" fill="rgb(255,255,255)" opacity="1.0" /><rect x="80" y="420" rx="6.6666665" ry="6.6666665" width="20" height="20" fill="rgb(255,255,255)" opacity="1.0" /><rect x="140" y="420" rx="6.6666665" ry="6.6666665" width="20" height="20" fill="rgb(255,255,255)" opacity="1.0" /><rect x="180" y="420" rx="6.6666665" ry="6.6666665" width="20" height="20" fill="rgb(255,255,255)" opacity="1.0" /><rect x="320" y="420" rx="6.6666665" ry="6.6666665" width="20" height="20" fill="rgb(255,255,255)" opacity="1.0" /><rect x="340" y="420" rx="6.6666665" ry="6.6666665" width="20" height="20" fill="rgb(255,255,255)" opacity="1.0" /><rect x="360" y="420" rx="6.6666665" ry="6.6666665" width="20" height="20" fill="rgb(255,255,255)" opacity="1.0" /><rect x="380" y="420" rx="6.6666665" ry="6.6666665" width="20" height="20" fill="rgb(255,255,255)" opacity="1.0" /><rect x="440" y="420" rx="6.6666665" ry="6.6666665" width="20" height="20" fill="rgb(255,255,255)" opacity="1.0" /><rect x="480" y="420" rx="6.6666665" ry="6.6666665" width="20" height="20" fill="rgb(255,255,255)" opacity="1.0" /><rect x="500" y="420" rx="6.6666665" ry="6.6666665" width="20" height="20" fill="rgb(255,255,255)" opacity="1.0" /><rect x="520" y="420" rx="6.6666665" ry="6.6666665" width="20" height="20" fill="rgb(255,255,255)" opacity="1.0" /><rect x="560" y="420" rx="6.6666665" ry="6.6666665" width="20" height="20" fill="rgb(255,255,255)" opacity="1.0" /><rect x="580" y="420" rx="6.6666665" ry="6.6666665" width="20" height="20" fill="rgb(255,255,255)" opacity="1.0" /><rect x="620" y="420" rx="6.6666665" ry="6.6666665" width="20" height="20" fill="rgb(255,255,255)" opacity="1.0" /><rect x="640" y="420" rx="6.6666665" ry="6.6666665" width="20" height="20" fill="rgb(255,255,255)" opacity="1.0" /><rect x="80" y="440" rx="6.6666665" ry="6.6666665" width="20" height="20" fill="rgb(255,255,255)" opacity="1.0" /><rect x="140" y="440" rx="6.6666665" ry="6.6666665" width="20" height="20" fill="rgb(255,255,255)" opacity="1.0" /><rect x="160" y="440" rx="6.6666665" ry="6.6666665" width="20" height="20" fill="rgb(255,255,255)" opacity="1.0" /><rect x="180" y="440" rx="6.6666665" ry="6.6666665" width="20" height="20" fill="rgb(255,255,255)" opacity="1.0" /><rect x="200" y="440" rx="6.6666665" ry="6.6666665" width="20" height="20" fill="rgb(255,255,255)" opacity="1.0" /><rect x="260" y="440" rx="6.6666665" ry="6.6666665" width="20" height="20" fill="rgb(255,255,255)" opacity="1.0" /><rect x="280" y="440" rx="6.6666665" ry="6.6666665" width="20" height="20" fill="rgb(255,255,255)" opacity="1.0" /><rect x="300" y="440" rx="6.6666665" ry="6.6666665" width="20" height="20" fill="rgb(255,255,255)" opacity="1.0" /><rect x="320" y="440" rx="6.6666665" ry="6.6666665" width="20" height="20" fill="rgb(255,255,255)" opacity="1.0" /><rect x="340" y="440" rx="6.6666665" ry="6.6666665" width="20" height="20" fill="rgb(255,255,255)" opacity="1.0" /><rect x="360" y="440" rx="6.6666665" ry="6.6666665" width="20" height="20" fill="rgb(255,255,255)" opacity="1.0" /><rect x="380" y="440" rx="6.6666665" ry="6.6666665" width="20" height="20" fill="rgb(255,255,255)" opacity="1.0" /><rect x="400" y="440" rx="6.6666665" ry="6.6666665" width="20" height="20" fill="rgb(255,255,255)" opacity="1.0" /><rect x="420" y="440" rx="6.6666665" ry="6.6666665" width="20" height="20" fill="rgb(255,255,255)" opacity="1.0" /><rect x="440" y="440" rx="6.6666665" ry="6.6666665" width="20" height="20" fill="rgb(255,255,255)" opacity="1.0" /><rect x="480" y="440" rx="6.6666665" ry="6.6666665" width="20" height="20" fill="rgb(255,255,255)" opacity="1.0" /><rect x="580" y="440" rx="6.6666665" ry="6.6666665" width="20" height="20" fill="rgb(255,255,255)" opacity="1.0" /><rect x="600" y="440" rx="6.6666665" ry="6.6666665" width="20" height="20" fill="rgb(255,255,255)" opacity="1.0" /><rect x="620" y="440" rx="6.6666665" ry="6.6666665" width="20" height="20" fill="rgb(255,255,255)" opacity="1.0" /><rect x="640" y="440" rx="6.6666665" ry="6.6666665" width="20" height="20" fill="rgb(255,255,255)" opacity="1.0" /><rect x="80" y="460" rx="6.6666665" ry="6.6666665" width="20" height="20" fill="rgb(255,255,255)" opacity="1.0" /><rect x="140" y="460" rx="6.6666665" ry="6.6666665" width="20" height="20" fill="rgb(255,255,255)" opacity="1.0" /><rect x="180" y="460" rx="6.6666665" ry="6.6666665" width="20" height="20" fill="rgb(255,255,255)" opacity="1.0" /><rect x="220" y="460" rx="6.6666665" ry="6.6666665" width="20" height="20" fill="rgb(255,255,255)" opacity="1.0" /><rect x="240" y="460" rx="6.6666665" ry="6.6666665" width="20" height="20" fill="rgb(255,255,255)" opacity="1.0" /><rect x="280" y="460" rx="6.6666665" ry="6.6666665" width="20" height="20" fill="rgb(255,255,255)" opacity="1.0" /><rect x="300" y="460" rx="6.6666665" ry="6.6666665" width="20" height="20" fill="rgb(255,255,255)" opacity="1.0" /><rect x="340" y="460" rx="6.6666665" ry="6.6666665" width="20" height="20" fill="rgb(255,255,255)" opacity="1.0" /><rect x="380" y="460" rx="6.6666665" ry="6.6666665" width="20" height="20" fill="rgb(255,255,255)" opacity="1.0" /><rect x="420" y="460" rx="6.6666665" ry="6.6666665" width="20" height="20" fill="rgb(255,255,255)" opacity="1.0" /><rect x="440" y="460" rx="6.6666665" ry="6.6666665" width="20" height="20" fill="rgb(255,255,255)" opacity="1.0" /><rect x="460" y="460" rx="6.6666665" ry="6.6666665" width="20" height="20" fill="rgb(255,255,255)" opacity="1.0" /><rect x="480" y="460" rx="6.6666665" ry="6.6666665" width="20" height="20" fill="rgb(255,255,255)" opacity="1.0" /><rect x="500" y="460" rx="6.6666665" ry="6.6666665" width="20" height="20" fill="rgb(255,255,255)" opacity="1.0" /><rect x="520" y="460" rx="6.6666665" ry="6.6666665" width="20" height="20" fill="rgb(255,255,255)" opacity="1.0" /><rect x="540" y="460" rx="6.6666665" ry="6.6666665" width="20" height="20" fill="rgb(255,255,255)" opacity="1.0" /><rect x="560" y="460" rx="6.6666665" ry="6.6666665" width="20" height="20" fill="rgb(255,255,255)" opacity="1.0" /><rect x="80" y="480" rx="6.6666665" ry="6.6666665" width="20" height="20" fill="rgb(255,255,255)" opacity="1.0" /><rect x="120" y="480" rx="6.6666665" ry="6.6666665" width="20" height="20" fill="rgb(255,255,255)" opacity="1.0" /><rect x="160" y="480" rx="6.6666665" ry="6.6666665" width="20" height="20" fill="rgb(255,255,255)" opacity="1.0" /><rect x="180" y="480" rx="6.6666665" ry="6.6666665" width="20" height="20" fill="rgb(255,255,255)" opacity="1.0" /><rect x="200" y="480" rx="6.6666665" ry="6.6666665" width="20" height="20" fill="rgb(255,255,255)" opacity="1.0" /><rect x="240" y="480" rx="6.6666665" ry="6.6666665" width="20" height="20" fill="rgb(255,255,255)" opacity="1.0" /><rect x="280" y="480" rx="6.6666665" ry="6.6666665" width="20" height="20" fill="rgb(255,255,255)" opacity="1.0" /><rect x="300" y="480" rx="6.6666665" ry="6.6666665" width="20" height="20" fill="rgb(255,255,255)" opacity="1.0" /><rect x="360" y="480" rx="6.6666665" ry="6.6666665" width="20" height="20" fill="rgb(255,255,255)" opacity="1.0" /><rect x="380" y="480" rx="6.6666665" ry="6.6666665" width="20" height="20" fill="rgb(255,255,255)" opacity="1.0" /><rect x="420" y="480" rx="6.6666665" ry="6.6666665" width="20" height="20" fill="rgb(255,255,255)" opacity="1.0" /><rect x="480" y="480" rx="6.6666665" ry="6.6666665" width="20" height="20" fill="rgb(255,255,255)" opacity="1.0" /><rect x="500" y="480" rx="6.6666665" ry="6.6666665" width="20" height="20" fill="rgb(255,255,255)" opacity="1.0" /><rect x="520" y="480" rx="6.6666665" ry="6.6666665" width="20" height="20" fill="rgb(255,255,255)" opacity="1.0" /><rect x="540" y="480" rx="6.6666665" ry="6.6666665" width="20" height="20" fill="rgb(255,255,255)" opacity="1.0" /><rect x="560" y="480" rx="6.6666665" ry="6.6666665" width="20" height="20" fill="rgb(255,255,255)" opacity="1.0" /><rect x="580" y="480" rx="6.6666665" ry="6.6666665" width="20" height="20" fill="rgb(255,255,255)" opacity="1.0" /><rect x="600" y="480" rx="6.6666665" ry="6.6666665" width="20" height="20" fill="rgb(255,255,255)" opacity="1.0" /><rect x="620" y="480" rx="6.6666665" ry="6.6666665" width="20" height="20" fill="rgb(255,255,255)" opacity="1.0" /><rect x="240" y="500" rx="6.6666665" ry="6.6666665" width="20" height="20" fill="rgb(255,255,255)" opacity="1.0" /><rect x="300" y="500" rx="6.6666665" ry="6.6666665" width="20" height="20" fill="rgb(255,255,255)" opacity="1.0" /><rect x="380" y="500" rx="6.6666665" ry="6.6666665" width="20" height="20" fill="rgb(255,255,255)" opacity="1.0" /><rect x="400" y="500" rx="6.6666665" ry="6.6666665" width="20" height="20" fill="rgb(255,255,255)" opacity="1.0" /><rect x="460" y="500" rx="6.6666665" ry="6.6666665" width="20" height="20" fill="rgb(255,255,255)" opacity="1.0" /><rect x="480" y="500" rx="6.6666665" ry="6.6666665" width="20" height="20" fill="rgb(255,255,255)" opacity="1.0" /><rect x="560" y="500" rx="6.6666665" ry="6.6666665" width="20" height="20" fill="rgb(255,255,255)" opacity="1.0" /><rect x="620" y="500" rx="6.6666665" ry="6.6666665" width="20" height="20" fill="rgb(255,255,255)" opacity="1.0" /><rect x="260" y="520" rx="6.6666665" ry="6.6666665" width="20" height="20" fill="rgb(255,255,255)" opacity="1.0" /><rect x="440" y="520" rx="6.6666665" ry="6.6666665" width="20" height="20" fill="rgb(255,255,255)" opacity="1.0" /><rect x="480" y="520" rx="6.6666665" ry="6.6666665" width="20" height="20" fill="rgb(255,255,255)" opacity="1.0" /><rect x="520" y="520" rx="6.6666665" ry="6.6666665" width="20" height="20" fill="rgb(255,255,255)" opacity="1.0" /><rect x="560" y="520" rx="6.6666665" ry="6.6666665" width="20" height="20" fill="rgb(255,255,255)" opacity="1.0" /><rect x="580" y="520" rx="6.6666665" ry="6.6666665" width="20" height="20" fill="rgb(255,255,255)" opacity="1.0" /><rect x="600" y="520" rx="6.6666665" ry="6.6666665" width="20" height="20" fill="rgb(255,255,255)" opacity="1.0" /><rect x="240" y="540" rx="6.6666665" ry="6.6666665" width="20" height="20" fill="rgb(255,255,255)" opacity="1.0" /><rect x="320" y="540" rx="6.6666665" ry="6.6666665" width="20" height="20" fill="rgb(255,255,255)" opacity="1.0" /><rect x="360" y="540" rx="6.6666665" ry="6.6666665" width="20" height="20" fill="rgb(255,255,255)" opacity="1.0" /><rect x="400" y="540" rx="6.6666665" ry="6.6666665" width="20" height="20" fill="rgb(255,255,255)" opacity="1.0" /><rect x="440" y="540" rx="6.6666665" ry="6.6666665" width="20" height="20" fill="rgb(255,255,255)" opacity="1.0" /><rect x="480" y="540" rx="6.6666665" ry="6.6666665" width="20" height="20" fill="rgb(255,255,255)" opacity="1.0" /><rect x="560" y="540" rx="6.6666665" ry="6.6666665" width="20" height="20" fill="rgb(255,255,255)" opacity="1.0" /><rect x="600" y="540" rx="6.6666665" ry="6.6666665" width="20" height="20" fill="rgb(255,255,255)" opacity="1.0" /><rect x="620" y="540" rx="6.6666665" ry="6.6666665" width="20" height="20" fill="rgb(255,255,255)" opacity="1.0" /><rect x="640" y="540" rx="6.6666665" ry="6.6666665" width="20" height="20" fill="rgb(255,255,255)" opacity="1.0" /><rect x="240" y="560" rx="6.6666665" ry="6.6666665" width="20" height="20" fill="rgb(255,255,255)" opacity="1.0" /><rect x="260" y="560" rx="6.6666665" ry="6.6666665" width="20" height="20" fill="rgb(255,255,255)" opacity="1.0" /><rect x="300" y="560" rx="6.6666665" ry="6.6666665" width="20" height="20" fill="rgb(255,255,255)" opacity="1.0" /><rect x="400" y="560" rx="6.6666665" ry="6.6666665" width="20" height="20" fill="rgb(255,255,255)" opacity="1.0" /><rect x="440" y="560" rx="6.6666665" ry="6.6666665" width="20" height="20" fill="rgb(255,255,255)" opacity="1.0" /><rect x="480" y="560" rx="6.6666665" ry="6.6666665" width="20" height="20" fill="rgb(255,255,255)" opacity="1.0" /><rect x="500" y="560" rx="6.6666665" ry="6.6666665" width="20" height="20" fill="rgb(255,255,255)" opacity="1.0" /><rect x="520" y="560" rx="6.6666665" ry="6.6666665" width="20" height="20" fill="rgb(255,255,255)" opacity="1.0" /><rect x="540" y="560" rx="6.6666665" ry="6.6666665" width="20" height="20" fill="rgb(255,255,255)" opacity="1.0" /><rect x="560" y="560" rx="6.6666665" ry="6.6666665" width="20" height="20" fill="rgb(255,255,255)" opacity="1.0" /><rect x="600" y="560" rx="6.6666665" ry="6.6666665" width="20" height="20" fill="rgb(255,255,255)" opacity="1.0" /><rect x="620" y="560" rx="6.6666665" ry="6.6666665" width="20" height="20" fill="rgb(255,255,255)" opacity="1.0" /><rect x="640" y="560" rx="6.6666665" ry="6.6666665" width="20" height="20" fill="rgb(255,255,255)" opacity="1.0" /><rect x="240" y="580" rx="6.6666665" ry="6.6666665" width="20" height="20" fill="rgb(255,255,255)" opacity="1.0" /><rect x="260" y="580" rx="6.6666665" ry="6.6666665" width="20" height="20" fill="rgb(255,255,255)" opacity="1.0" /><rect x="340" y="580" rx="6.6666665" ry="6.6666665" width="20" height="20" fill="rgb(255,255,255)" opacity="1.0" /><rect x="360" y="580" rx="6.6666665" ry="6.6666665" width="20" height="20" fill="rgb(255,255,255)" opacity="1.0" /><rect x="380" y="580" rx="6.6666665" ry="6.6666665" width="20" height="20" fill="rgb(255,255,255)" opacity="1.0" /><rect x="420" y="580" rx="6.6666665" ry="6.6666665" width="20" height="20" fill="rgb(255,255,255)" opacity="1.0" /><rect x="440" y="580" rx="6.6666665" ry="6.6666665" width="20" height="20" fill="rgb(255,255,255)" opacity="1.0" /><rect x="480" y="580" rx="6.6666665" ry="6.6666665" width="20" height="20" fill="rgb(255,255,255)" opacity="1.0" /><rect x="540" y="580" rx="6.6666665" ry="6.6666665" width="20" height="20" fill="rgb(255,255,255)" opacity="1.0" /><rect x="240" y="600" rx="6.6666665" ry="6.6666665" width="20" height="20" fill="rgb(255,255,255)" opacity="1.0" /><rect x="300" y="600" rx="6.6666665" ry="6.6666665" width="20" height="20" fill="rgb(255,255,255)" opacity="1.0" /><rect x="340" y="600" rx="6.6666665" ry="6.6666665" width="20" height="20" fill="rgb(255,255,255)" opacity="1.0" /><rect x="360" y="600" rx="6.6666665" ry="6.6666665" width="20" height="20" fill="rgb(255,255,255)" opacity="1.0" /><rect x="380" y="600" rx="6.6666665" ry="6.6666665" width="20" height="20" fill="rgb(255,255,255)" opacity="1.0" /><rect x="400" y="600" rx="6.6666665" ry="6.6666665" width="20" height="20" fill="rgb(255,255,255)" opacity="1.0" /><rect x="420" y="600" rx="6.6666665" ry="6.6666665" width="20" height="20" fill="rgb(255,255,255)" opacity="1.0" /><rect x="460" y="600" rx="6.6666665" ry="6.6666665" width="20" height="20" fill="rgb(255,255,255)" opacity="1.0" /><rect x="500" y="600" rx="6.6666665" ry="6.6666665" width="20" height="20" fill="rgb(255,255,255)" opacity="1.0" /><rect x="520" y="600" rx="6.6666665" ry="6.6666665" width="20" height="20" fill="rgb(255,255,255)" opacity="1.0" /><rect x="540" y="600" rx="6.6666665" ry="6.6666665" width="20" height="20" fill="rgb(255,255,255)" opacity="1.0" /><rect x="600" y="600" rx="6.6666665" ry="6.6666665" width="20" height="20" fill="rgb(255,255,255)" opacity="1.0" /><rect x="620" y="600" rx="6.6666665" ry="6.6666665" width="20" height="20" fill="rgb(255,255,255)" opacity="1.0" /><rect x="320" y="620" rx="6.6666665" ry="6.6666665" width="20" height="20" fill="rgb(255,255,255)" opacity="1.0" /><rect x="360" y="620" rx="6.6666665" ry="6.6666665" width="20" height="20" fill="rgb(255,255,255)" opacity="1.0" /><rect x="380" y="620" rx="6.6666665" ry="6.6666665" width="20" height="20" fill="rgb(255,255,255)" opacity="1.0" /><rect x="420" y="620" rx="6.6666665" ry="6.6666665" width="20" height="20" fill="rgb(255,255,255)" opacity="1.0" /><rect x="440" y="620" rx="6.6666665" ry="6.6666665" width="20" height="20" fill="rgb(255,255,255)" opacity="1.0" /><rect x="460" y="620" rx="6.6666665" ry="6.6666665" width="20" height="20" fill="rgb(255,255,255)" opacity="1.0" /><rect x="580" y="620" rx="6.6666665" ry="6.6666665" width="20" height="20" fill="rgb(255,255,255)" opacity="1.0" /><rect x="600" y="620" rx="6.6666665" ry="6.6666665" width="20" height="20" fill="rgb(255,255,255)" opacity="1.0" /><rect x="640" y="620" rx="6.6666665" ry="6.6666665" width="20" height="20" fill="rgb(255,255,255)" opacity="1.0" /><rect x="240" y="640" rx="6.6666665" ry="6.6666665" width="20" height="20" fill="rgb(255,255,255)" opacity="1.0" /><rect x="380" y="640" rx="6.6666665" ry="6.6666665" width="20" height="20" fill="rgb(255,255,255)" opacity="1.0" /><rect x="460" y="640" rx="6.6666665" ry="6.6666665" width="20" height="20" fill="rgb(255,255,255)" opacity="1.0" /><rect x="500" y="640" rx="6.6666665" ry="6.6666665" width="20" height="20" fill="rgb(255,255,255)" opacity="1.0" /><rect x="520" y="640" rx="6.6666665" ry="6.6666665" width="20" height="20" fill="rgb(255,255,255)" opacity="1.0" /><rect x="560" y="640" rx="6.6666665" ry="6.6666665" width="20" height="20" fill="rgb(255,255,255)" opacity="1.0" /><rect x="580" y="640" rx="6.6666665" ry="6.6666665" width="20" height="20" fill="rgb(255,255,255)" opacity="1.0" /><rect x="600" y="640" rx="6.6666665" ry="6.6666665" width="20" height="20" fill="rgb(255,255,255)" opacity="1.0" /><path d="M80,80 h140 v140 h-140 Z M100.0,100.0 h100.0 v100.0 h-100.0 Z" fill-rule="evenodd" fill="rgb(255,255,255)" opacity="1.0" shape-rendering="crispEdges" /><path d="M520,80 h140 v140 h-140 Z M540.0,100.0 h100.0 v100.0 h-100.0 Z" fill-rule="evenodd" fill="rgb(255,255,255)" opacity="1.0" shape-rendering="crispEdges" /><rect x="120" y="120" width="60" height="60" fill="rgb(255,255,255)" opacity="1.0" shape-rendering="crispEdges" /><rect x="560" y="120" width="60" height="60" fill="rgb(255,255,255)" opacity="1.0" shape-rendering="crispEdges" /><path d="M80,520 h140 v140 h-140 Z M100.0,540.0 h100.0 v100.0 h-100.0 Z" fill-rule="evenodd" fill="rgb(255,255,255)" opacity="1.0" shape-rendering="crispEdges" /><rect x="120" y="560" width="60" height="60" fill="rgb(255,255,255)" opacity="1.0" shape-rendering="crispEdges" /></svg></g></svg>