<svg width="300" height="300" viewBox="0 0 300 300" fill="none" xmlns="http://www.w3.org/2000/svg">
<rect width="300" height="300" rx="49" fill="white"/>
<g clip-path="url(#clip0_35_546)">
<path d="M204.903 25.3408C193.817 25.3408 182.995 29.8281 175.076 37.7468L172.172 40.6504C170.853 61.767 163.726 81.0359 152.64 98.7211C156.599 81.8278 158.447 66.7822 155.543 57.2797L130.731 82.0918C129.411 103.208 122.284 122.213 111.198 139.635C115.685 122.741 117.005 109.015 115.158 97.4013L89.2897 123.269C79.7872 132.508 74.508 145.442 74.508 158.64V234.132L48.1122 259.999C41.5133 266.07 37.8179 274.781 37.8179 283.756V285.867L231.563 93.7059C249.776 75.7568 259.807 51.2087 260.07 25.6048H205.167L204.903 25.3408Z" fill="black"/>
<path d="M189.858 187.411L243.177 134.355C253.736 124.061 259.543 109.807 259.543 95.0255V62.8226C257.695 69.9495 255.319 76.5484 251.624 81.8276C244.497 91.594 236.842 100.569 228.132 109.279L136.538 200.345L171.909 196.121C178.508 195.33 184.843 192.426 189.33 187.675L189.858 187.411Z" fill="black"/>
<path d="M126.772 210.112L83.7466 252.873L108.031 253.401C117.797 253.401 127.036 249.705 133.899 243.106L175.34 201.929C172.436 203.777 170.061 204.568 167.157 205.36L126.772 210.112Z" fill="black"/>
</g>
<defs>
<clipPath id="clip0_35_546">
<rect width="224.364" height="261.318" fill="white" transform="translate(37.8179 25.3408)"/>
</clipPath>
</defs>
</svg>
